<svg width="21" height="21" viewBox="0 0 21 21" fill="none" xmlns="http://www.w3.org/2000/svg">
<circle cx="10.4365" cy="10.9365" r="9.5" fill="url(#paint0_linear)" stroke="#1E2223"/>
<path d="M10.3885 16.8382C9.3976 16.828 8.23299 16.5113 7.19096 15.9699C6.54736 15.643 5.96505 15.2241 5.51555 14.7746C5.46447 14.7235 5.39296 14.6929 5.31124 14.6929C5.31124 14.6929 5.30102 14.6929 5.2908 14.6929L4.85152 14.744C4.79022 14.744 4.74936 14.7542 4.68806 14.7542C4.67785 14.7542 4.65742 14.7542 4.65742 14.7542C4.24878 14.7542 3.86058 14.6111 3.54388 14.3455C3.15568 14.0391 2.9105 13.5793 2.85942 13.0685L2.72661 11.7098C2.67553 11.2195 2.80834 10.7393 3.11481 10.3511C3.37021 10.0242 3.71755 9.78923 4.11597 9.69729C4.22835 9.66664 4.31008 9.5747 4.33051 9.46232C4.41223 8.70635 4.62677 7.99123 4.91281 7.51108C5.5462 6.44863 6.61887 5.68243 7.855 5.39639C8.19212 5.32488 8.46795 5.2738 8.74378 5.23293C8.87659 5.2125 9.0094 5.20229 9.1422 5.18185C9.15242 5.18185 9.16264 5.18185 9.16264 5.18185C9.57127 5.14099 9.99013 5.11034 10.4192 5.11034C10.4192 5.11034 10.4294 5.11034 10.4396 5.11034C10.8687 5.11034 11.2978 5.13077 11.7064 5.18185C11.7166 5.18185 11.7166 5.18185 11.7268 5.18185C11.8596 5.20229 11.9924 5.2125 12.1253 5.23293C12.3909 5.26358 12.6769 5.31466 13.0038 5.38617C14.2399 5.67222 15.3126 6.43841 15.946 7.50087C16.2321 7.98101 16.4466 8.68591 16.5283 9.45211C16.5385 9.56448 16.6203 9.66664 16.7326 9.68707C17.1311 9.78923 17.4784 10.014 17.7338 10.3409C18.0301 10.7291 18.1731 11.2195 18.122 11.7098L17.9892 13.0583C17.9381 13.5691 17.6929 14.0288 17.3047 14.3353C16.9982 14.5907 16.61 14.7337 16.1912 14.7337C16.1912 14.7337 16.1708 14.7337 16.1605 14.7337C16.0992 14.7337 16.0584 14.7235 16.0073 14.7235C16.0073 14.7235 15.5272 14.6724 15.5169 14.6724C15.4556 14.6724 15.3841 14.7031 15.3228 14.7542C14.8733 15.2037 14.3012 15.6123 13.6576 15.9392C12.6156 16.4807 11.451 16.7974 10.4601 16.8076C10.4498 16.8076 10.4396 16.8076 10.4294 16.8076C10.4192 16.8382 10.3988 16.8382 10.3885 16.8382Z" fill="#EDEACA"/>
<path d="M17.3353 10.6678C17.1515 10.4226 16.8961 10.2591 16.61 10.1978C16.2933 10.1263 16.0584 9.85051 16.0175 9.53381C15.946 8.85956 15.7519 8.20575 15.5067 7.78689C14.9448 6.84703 13.9845 6.15234 12.8812 5.89695C12.6054 5.83565 12.3295 5.78457 12.0435 5.74371C11.9107 5.72328 11.7779 5.71306 11.6553 5.69263C11.2569 5.65176 10.8482 5.63133 10.4294 5.63133C10.0105 5.63133 9.60189 5.65176 9.20347 5.69263C9.07066 5.71306 8.94807 5.72328 8.81527 5.74371C8.52922 5.78457 8.25339 5.83565 7.97756 5.89695C6.87424 6.15234 5.91395 6.83681 5.35207 7.78689C5.09667 8.20575 4.91279 8.85956 4.84127 9.53381C4.81063 9.86072 4.57566 10.1263 4.24875 10.1978C3.9627 10.2694 3.70731 10.4328 3.52342 10.6678C3.29867 10.9538 3.19651 11.3114 3.23737 11.6792L3.37018 13.0277C3.41105 13.4056 3.58472 13.7428 3.87076 13.9675C4.10573 14.1616 4.38156 14.2536 4.67782 14.2536C4.73911 14.2536 4.77998 14.2434 4.82084 14.2434L5.26013 14.1923C5.29077 14.1923 5.32142 14.1821 5.34185 14.1821C5.54617 14.1821 5.74027 14.2638 5.89351 14.4068C6.30215 14.8154 6.83338 15.2037 7.44633 15.5101C8.43728 16.0209 9.53038 16.3172 10.4498 16.3274C11.3692 16.3172 12.4623 16.0209 13.4533 15.5101C14.056 15.2037 14.5873 14.8154 15.0061 14.4068C15.1594 14.2638 15.3432 14.1821 15.5578 14.1821C15.5782 14.1821 15.6191 14.1821 15.6395 14.1923L16.0788 14.2434C16.1196 14.2434 16.1605 14.2536 16.2218 14.2536C16.5181 14.2536 16.7939 14.1514 17.0289 13.9675C17.3149 13.7326 17.4886 13.3954 17.5294 13.0277L17.6623 11.6792C17.6623 11.3114 17.5601 10.9538 17.3353 10.6678Z" fill="#1E2223"/>
<path d="M15.7315 13.2013C15.2922 13.1605 15.568 12.6293 15.7315 11.9754C15.9154 11.2092 15.6395 10.8721 16.0686 10.913C17.0595 11.0867 16.7122 13.375 15.7315 13.2013Z" fill="#1E2223"/>
<path d="M14.5157 13.5793C14.0049 15.0096 11.829 15.8064 10.4294 15.8064C10.4294 15.8064 10.4294 15.8064 10.4192 15.8064H10.3783C8.97871 15.8064 6.77207 14.9994 6.27149 13.5589C6.16933 12.7519 6.29192 11.7609 7.26243 11.6792C7.46675 11.6179 7.4974 11.3318 7.3033 11.2399C4.9945 10.1059 6.89466 6.88792 9.08087 7.43958C10.0412 7.72562 9.88793 7.86865 10.4089 7.86865H10.4192C10.93 7.86865 10.7869 7.72562 11.7472 7.43958C13.9334 6.89813 15.8132 10.1366 13.5044 11.2501C13.3409 11.3318 13.3205 11.5668 13.4839 11.669C13.535 11.6996 13.7904 11.7711 13.8619 11.7916C14.5668 11.9244 14.5975 12.997 14.5157 13.5793Z" fill="#EDEACA"/>
<path d="M8.89698 12.0878C9.08087 11.6792 9.96966 11.8937 9.76534 12.4147C9.71426 12.711 8.80504 12.4556 8.89698 12.0878Z" fill="#1E2223"/>
<path d="M11.8801 12.098C11.7064 11.6792 10.8074 11.9039 11.0117 12.4147C11.0628 12.711 11.9618 12.4658 11.8801 12.098Z" fill="#1E2223"/>
<path d="M9.00938 10.0549C9.00938 10.2183 8.98894 10.3715 8.9583 10.5044C8.85614 10.8517 8.63139 11.1071 8.34534 11.1582C7.98778 11.2195 7.65066 10.9436 7.49742 10.5146C7.46677 10.4124 7.43612 10.3103 7.42591 10.1877C7.41569 10.1468 7.41569 10.0957 7.41569 10.0549C7.39526 9.50319 7.68131 9.02305 8.07973 8.95154C8.51901 8.88002 8.92765 9.31931 8.99916 9.92205C9.00938 9.96291 9.00938 10.0038 9.00938 10.0549Z" fill="#1E2223"/>
<path d="M13.392 10.0651C13.392 10.1059 13.392 10.157 13.3818 10.1979C13.3103 10.8006 12.8914 11.2399 12.4522 11.1582C12.0435 11.0867 11.7677 10.6065 11.7881 10.0549C11.7881 10.014 11.7881 9.96291 11.7983 9.92205C11.8699 9.31931 12.2887 8.88002 12.728 8.95154C13.1366 9.03326 13.4125 9.51341 13.392 10.0651Z" fill="#1E2223"/>
<path d="M15.7315 13.2013C15.2922 13.1605 15.568 12.6293 15.7315 11.9754C15.9154 11.2092 15.6395 10.8721 16.0686 10.913C17.0595 11.0867 16.7122 13.375 15.7315 13.2013Z" fill="#EDEACA"/>
<path d="M5.18861 13.2218C4.20788 13.4056 3.86054 11.1071 4.85148 10.9334C5.28055 10.8925 5.00472 11.2296 5.18861 11.9958C5.34185 12.6497 5.61768 13.1707 5.18861 13.2218Z" fill="#EDEACA"/>
<path d="M13.77 13.9267C13.7292 13.988 13.6985 14.039 13.6576 14.0901C13.6168 14.1412 13.5759 14.1821 13.5351 14.2127C12.6258 14.8563 11.543 15.1526 10.5724 15.2037C10.552 15.2139 10.5316 15.2139 10.5111 15.2139H10.5009C10.4703 15.2139 10.3783 15.2139 10.3783 15.2139C10.3783 15.2139 10.2966 15.2139 10.266 15.2139C10.2455 15.2139 10.2251 15.2139 10.2047 15.2037C9.23415 15.1322 8.14105 14.8257 7.25226 14.1616C7.2114 14.131 7.17054 14.0901 7.12967 14.039C7.08881 13.988 7.05816 13.9267 7.0173 13.8756C6.98665 13.8143 6.96622 13.753 6.956 13.6917C6.92535 13.5283 6.99686 13.3546 7.12967 13.2013C7.1501 13.1809 7.17054 13.1605 7.19097 13.14C7.37485 12.9766 7.5996 12.8846 7.79371 12.9051C7.855 12.9051 7.90608 12.9255 7.96738 12.9459C8.02867 12.9664 8.08997 12.997 8.15126 13.0175C8.22278 13.0379 8.28407 13.0685 8.35558 13.089C9.02983 13.3137 9.72452 13.4159 10.3988 13.4363C11.0628 13.4261 11.7575 13.3239 12.442 13.1196C12.5135 13.0992 12.585 13.0788 12.6463 13.0481C12.6871 13.0379 12.8404 12.9766 12.8404 12.9766C12.8915 12.9562 12.9527 12.9459 13.014 12.9459C13.2388 12.9357 13.4942 13.0481 13.6781 13.2524C13.8722 13.467 13.9028 13.7224 13.77 13.9267Z" fill="#1E2223"/>
<path d="M13.1775 13.8449C13.1468 13.8858 13.1162 13.9164 13.0957 13.9573C13.0753 13.9777 13.0549 13.9981 13.0242 14.0186C12.3295 14.4783 11.3999 14.703 10.5111 14.7337C10.4702 14.7337 10.4294 14.7337 10.3987 14.7337C10.3579 14.7337 10.317 14.7337 10.2863 14.7337C9.39756 14.6928 8.46791 14.4476 7.79366 13.9777C7.77323 13.9573 7.74258 13.9368 7.73236 13.9164C8.10014 13.9981 8.47813 14.039 8.85611 14.039C8.46791 13.8347 8.10014 13.6508 7.76301 13.4567C7.87539 13.3852 8.02863 13.3443 8.17165 13.3954C8.23294 13.4158 8.29424 13.4363 8.34532 13.4465C8.40661 13.4669 8.47813 13.4873 8.53942 13.4976C9.18302 13.6712 9.81641 13.753 10.4192 13.7734C11.0219 13.7632 11.6655 13.6917 12.3091 13.5384C12.3704 13.518 12.4419 13.5078 12.5032 13.4873C12.5645 13.4669 12.6258 13.4567 12.6871 13.4363C12.9833 13.3239 13.3511 13.5997 13.1775 13.8449Z" fill="#EDEACA"/>
<defs>
<linearGradient id="paint0_linear" x1="10.4365" y1="1.93646" x2="10.4365" y2="19.9365" gradientUnits="userSpaceOnUse">
<stop stop-color="#FFDB34"/>
<stop offset="1" stop-color="#C9D4ED"/>
</linearGradient>
</defs>
</svg>
